<svg id="Layer_1" data-name="Layer 1" xmlns="http://www.w3.org/2000/svg" viewBox="0 0 619.65 201.84"><defs><style>.cls-1{fill:#49b96d;}.cls-2{fill:#22303d;}</style></defs><path class="cls-1" d="M570,515.12l33.88.63-6.38,40.5,50.88.13s25.37-8.5,27.62-27.88-20.88-26.12-20.88-26.12l-82,.24,25.5-29.12,67.88,2c26.75.12,43.62,36.88,43.62,36.88L716,474.62l33.5.88c-2.62,4.75-13.25,82-13.25,82l23.63.38-35.5,27.87-26.63-.87,5.37-39.38s-20.37,31.62-53.74,36.75l-90.76,2,10.76-67.5" transform="translate(-558.63 -428.46)"/><path class="cls-1" d="M727,467.75s50-43.25,87.75-39,27.83,39.92,27.83,39.92-3-25.67-32.75-28.42c-36.74-3.4-82.83,27.5-82.83,27.5" transform="translate(-558.63 -428.46)"/><path class="cls-2" d="M787.5,449.38c69.5,15.87-17.12,108.37-17.12,108.37C678.5,637.62,663.5,589.5,663.5,589.5L651,591.75s-4.5,32,20.25,37.75c50,7.75,101.5-43.75,101.5-43.75H795.5l25-28.37-20.38-.13s44.88-52,30.13-94.5c0,0-7.5-19.5-41.63-14.19" transform="translate(-558.63 -428.46)"/><path class="cls-2" d="M838.8,559.06a65.48,65.48,0,0,0,28.73,7.14c11.89,0,18.18-4.93,18.18-12.41,0-7.14-5.44-11.22-19.2-16-19-6.8-31.62-17.34-31.62-34,0-19.55,16.49-34.34,43.34-34.34,13.09,0,22.44,2.55,29.24,5.78L901.69,496a53.58,53.58,0,0,0-23.79-5.44c-11.22,0-16.66,5.27-16.66,11.05,0,7.31,6.29,10.54,21.24,16.15,20.23,7.48,29.58,18,29.58,34.17,0,19.21-14.62,35.53-46.06,35.53-13.09,0-26-3.57-32.47-7.14Z" transform="translate(-558.63 -428.46)"/><path class="cls-2" d="M1012.19,543.25c0,30.43-21.59,44.37-43.86,44.37-24.31,0-43-16-43-42.84,0-27,17.68-44.2,44.54-44.2C995.19,500.58,1012.19,518.09,1012.19,543.25ZM952,544.1c0,14.28,6,25,17,25,10.2,0,16.49-10,16.49-25.16,0-12.24-4.76-24.82-16.49-24.82C956.77,519.11,952,531.86,952,544.1Z" transform="translate(-558.63 -428.46)"/><path class="cls-2" d="M1031.23,585.75V521.66h-11.05v-19h11.05v-3.23c0-10,3.06-21.08,10.37-27.88,6.63-6.12,15.47-8.33,23.12-8.33a56.69,56.69,0,0,1,13.6,1.7l-1,19.89a28,28,0,0,0-8.33-1.19c-8.5,0-12.07,6.63-12.07,14.79v4.25h16.66v19h-16.49v64.09Z" transform="translate(-558.63 -428.46)"/><path class="cls-2" d="M1117.59,480.18v22.44h18.53v19h-18.53v30.09c0,10,2.55,14.62,10.2,14.62a31.78,31.78,0,0,0,7.65-.68l.17,19.55c-3.23,1.19-9.52,2.21-16.66,2.21-8.33,0-15.3-2.89-19.55-7.14-4.76-4.93-7.14-12.92-7.14-24.65v-34h-11v-19h11V487.15Z" transform="translate(-558.63 -428.46)"/><path class="cls-2" d="M1147.85,572c0-9.35,6.29-15.81,15.3-15.81,8.84,0,15,6.29,15.13,15.81,0,9-6.12,15.64-15.47,15.64C1154.14,587.62,1147.85,581,1147.85,572Z" transform="translate(-558.63 -428.46)"/></svg>